<?xml version="1.0" standalone="no"?>
<!DOCTYPE svg PUBLIC "-//W3C//DTD SVG 20010904//EN"
 "http://www.w3.org/TR/2001/REC-SVG-20010904/DTD/svg10.dtd">
<svg version="1.0" xmlns="http://www.w3.org/2000/svg"
 width="16.000000pt" height="16.000000pt" viewBox="0 0 16.000000 16.000000"
 preserveAspectRatio="xMidYMid meet">
<metadata>
Created by potrace 1.11, written by Peter Selinger 2001-2013
</metadata>
<g transform="translate(0.000000,16.000000) scale(0.003200,-0.003200)"
fill="#000000" stroke="none">
<path d="M2330 4854 c-846 -78 -1560 -557 -1935 -1299 -356 -703 -334 -1549
60 -2230 375 -649 1018 -1076 1775 -1176 122 -16 436 -16 565 0 267 34 522
109 760 225 238 117 421 245 609 426 394 380 629 850 708 1415 19 136 16 465
-6 610 -39 260 -109 483 -226 720 -341 691 -1005 1172 -1780 1290 -101 15
-438 27 -530 19z m-475 -858 c58 -25 126 -138 180 -301 55 -166 20 -275 -314
-970 -60 -125 -90 -196 -73 -175 95 121 328 402 461 555 261 304 453 481 701
647 190 128 270 153 341 105 48 -32 96 -108 110 -175 10 -51 9 -65 -10 -132
-43 -144 -174 -395 -504 -960 -104 -179 -192 -329 -194 -335 -6 -12 21 16 378
390 364 382 631 643 754 740 55 43 165 135 245 205 188 163 246 209 295 231
58 27 89 24 132 -13 47 -42 151 -202 159 -246 9 -48 -19 -100 -108 -198 -40
-44 -124 -136 -187 -205 -497 -544 -871 -1190 -898 -1549 -6 -89 7 -147 42
-180 21 -20 39 -25 93 -28 86 -5 150 19 274 100 51 34 129 83 173 111 44 27
133 87 197 134 65 46 125 86 133 89 12 5 15 -6 15 -65 l0 -70 -127 -117 c-263
-239 -527 -434 -713 -523 -93 -45 -97 -46 -195 -46 -115 0 -165 18 -233 85
-96 92 -127 194 -119 385 16 361 191 676 718 1291 179 209 201 241 188 265 -5
11 -18 19 -27 19 -45 0 -256 -175 -501 -415 -331 -325 -600 -627 -949 -1065
-108 -135 -229 -287 -270 -338 -76 -95 -131 -142 -166 -142 -35 0 -84 66 -112
153 -23 69 -27 100 -28 197 -1 100 2 122 22 164 31 66 122 201 344 507 226
310 334 471 467 694 134 223 199 355 213 432 22 119 -21 144 -128 75 -315
-205 -943 -993 -1509 -1896 -55 -88 -118 -179 -141 -203 -35 -37 -46 -43 -82
-43 -32 0 -47 6 -72 31 -83 83 -167 360 -130 430 7 13 86 123 175 244 575 781
892 1325 898 1545 1 62 -10 86 -50 101 -61 23 -215 -47 -568 -256 -523 -311
-649 -376 -738 -379 -62 -1 -77 17 -77 93 0 77 56 345 85 408 29 65 110 145
262 260 130 98 167 123 183 123 26 0 3 -32 -73 -102 -71 -65 -124 -134 -113
-146 2 -2 63 31 136 73 324 186 688 344 898 389 87 19 96 19 137 2z"/>
</g>
</svg>
