<?xml version="1.0" standalone="no"?>
<!DOCTYPE svg PUBLIC "-//W3C//DTD SVG 20010904//EN"
 "http://www.w3.org/TR/2001/REC-SVG-20010904/DTD/svg10.dtd">
<svg version="1.0" xmlns="http://www.w3.org/2000/svg"
 width="16.000000pt" height="16.000000pt" viewBox="0 0 16.000000 16.000000"
 preserveAspectRatio="xMidYMid meet">
<metadata>
Created by potrace 1.11, written by Peter Selinger 2001-2013
</metadata>
<g transform="translate(0.000000,16.000000) scale(0.003721,-0.003721)"
fill="#000000" stroke="none">
<path d="M1825 4280 c-215 -33 -407 -92 -605 -186 -159 -76 -260 -140 -435
-275 -43 -33 -264 -257 -300 -303 -17 -21 -38 -48 -47 -60 -10 -11 -21 -25
-26 -31 -4 -5 -34 -50 -67 -100 -159 -242 -261 -503 -317 -810 -30 -162 -33
-543 -5 -706 39 -231 107 -442 209 -641 54 -107 155 -269 203 -326 11 -13 28
-33 38 -45 336 -407 743 -655 1247 -763 111 -23 154 -27 376 -31 200 -4 273
-2 365 11 371 54 713 199 1011 428 89 69 253 228 328 318 19 23 47 56 62 74
15 17 28 34 28 38 0 4 6 13 13 20 16 16 71 97 80 118 4 8 18 33 32 55 54 85
139 274 180 399 85 259 109 434 102 743 -7 342 -65 591 -203 878 -62 130 -182
322 -249 400 -14 17 -45 52 -68 79 -336 392 -820 654 -1332 721 -162 21 -464
19 -620 -5z m615 -245 c736 -119 1337 -647 1540 -1354 56 -195 73 -314 73
-531 0 -221 -17 -337 -77 -546 -89 -310 -244 -566 -490 -809 -237 -235 -502
-392 -811 -480 -822 -235 -1692 104 -2147 838 -114 182 -194 388 -246 627 -25
116 -26 142 -27 365 0 261 7 317 66 529 210 747 870 1296 1654 1376 117 11
345 4 465 -15z"/>
<path d="M1396 3820 c-40 -12 -63 -36 -70 -73 -9 -46 -136 -1441 -136 -1497 0
-71 15 -80 136 -80 66 1 105 5 116 14 16 11 22 66 48 412 16 219 33 502 36
628 l7 228 42 -118 c34 -94 183 -457 260 -629 7 -16 45 -106 84 -200 115 -272
95 -249 224 -253 92 -3 105 -2 130 18 15 12 27 26 27 32 0 9 90 258 125 348
52 129 223 615 250 710 25 85 34 106 34 79 2 -110 36 -520 62 -749 16 -146 35
-312 41 -370 16 -153 13 -150 158 -150 115 0 121 1 131 23 16 35 -185 1553
-210 1587 -27 37 -83 52 -176 48 -89 -5 -126 -22 -150 -69 -8 -15 -103 -274
-211 -576 -108 -301 -199 -551 -203 -555 -3 -4 -110 246 -236 554 -127 309
-239 576 -250 592 -12 17 -36 36 -55 43 -40 14 -171 15 -214 3z"/>
<path d="M1193 2123 c-7 -2 -13 -21 -13 -41 0 -85 192 -1518 208 -1552 21 -44
61 -59 162 -59 52 0 87 5 116 18 51 23 44 5 284 679 101 282 187 509 190 505
4 -5 110 -260 236 -568 126 -308 239 -572 252 -587 32 -37 90 -51 188 -45 87
5 117 16 134 48 6 11 43 366 81 790 66 718 70 772 55 794 -16 24 -21 25 -121
25 -88 0 -108 -3 -123 -18 -19 -19 -20 -28 -67 -692 -8 -107 -15 -285 -15
-395 l-1 -200 -48 135 c-36 103 -241 599 -311 755 -5 11 -18 43 -30 70 -12 28
-25 59 -30 70 -37 83 -50 115 -50 123 0 6 -13 24 -29 41 -28 30 -31 31 -123
31 -131 0 -134 -3 -192 -163 -51 -140 -79 -218 -189 -517 -55 -151 -118 -331
-138 -400 -44 -150 -42 -157 -63 180 -22 336 -92 940 -113 962 -14 15 -33 18
-127 17 -61 0 -117 -3 -123 -6z"/>
</g>
</svg>
